<svg width="112" height="59" viewBox="0 0 112 59" fill="none" xmlns="http://www.w3.org/2000/svg">
<path d="M14 32.2017C21.1015 31.1496 28.0245 29.3737 35.1914 28.5964C42.2661 27.829 49.3955 27.4476 56.5132 27.536C67.9345 27.6777 82.5841 29.7721 93.8899 31.1211" stroke="black" stroke-width="5" stroke-linecap="round"/>
<path d="M68.7649 13C74.5481 16.2253 80.0546 20.0148 85.5026 23.767C88.9988 26.1749 92.4923 28.6088 95.8618 31.1897C96.3155 31.5372 96.6791 31.5581 96.9548 32.0543C96.982 32.1032 97.0837 32.1712 97.0363 32.2011C95.7887 32.9891 94.2597 33.202 92.86 33.6693C87.763 35.3713 83.857 36.836 78.3899 39.1207C71.5599 41.9748 73.7092 41.0648 63.8899 45.6211" stroke="black" stroke-width="5" stroke-linecap="round"/>
</svg>
