<svg width="512" height="512" viewBox="0 0 512 512" fill="none" xmlns="http://www.w3.org/2000/svg">
<g clip-path="url(#clip0_333_4168)">
<path d="M0 24C0 10.75 10.75 0 24 0H136C149.3 0 160 10.75 160 24C160 37.25 149.3 48 136 48H48V136C48 149.3 37.25 160 24 160C10.75 160 0 149.3 0 136V24ZM488 0C501.3 0 512 10.75 512 24V136C512 149.3 501.3 160 488 160C474.7 160 464 149.3 464 136V48H376C362.7 48 352 37.25 352 24C352 10.75 362.7 0 376 0H488ZM0 376C0 362.7 10.75 352 24 352C37.25 352 48 362.7 48 376V464H136C149.3 464 160 474.7 160 488C160 501.3 149.3 512 136 512H24C10.75 512 0 501.3 0 488V376ZM376 512C362.7 512 352 501.3 352 488C352 474.7 362.7 464 376 464H464V376C464 362.7 474.7 352 488 352C501.3 352 512 362.7 512 376V488C512 501.3 501.3 512 488 512H376Z" fill="#151515"/>
<path fill-rule="evenodd" clip-rule="evenodd" d="M222.82 155H289.18C296.18 155 302.41 159.349 304.86 165.942L309.2 177.444H334.4C352.95 177.444 368 192.524 368 211.111V323.333C368 341.92 352.95 357 334.4 357H177.6C159.05 357 144 341.92 144 323.333V211.111C144 192.524 159.05 177.444 177.6 177.444H202.8L207.14 165.942C209.59 159.349 215.82 155 222.82 155ZM300.8 267.222C300.8 291.981 280.71 312.111 256 312.111C231.29 312.111 211.2 291.981 211.2 267.222C211.2 242.463 231.29 222.333 256 222.333C280.71 222.333 300.8 242.463 300.8 267.222Z" fill="#151515"/>
</g>
<defs>
<clipPath id="clip0_333_4168">
<rect width="512" height="512" fill="white"/>
</clipPath>
</defs>
</svg>
